<svg width="35" height="30" viewBox="0 0 35 30" fill="none" xmlns="http://www.w3.org/2000/svg">
<rect width="35" height="30" fill="#1E1E1E"/>
<g id="Mobile-Components">
<rect width="470" height="1364" transform="translate(-374 -832)" fill="white"/>
<g id="Header-main">
<rect id="Rectangle 8" x="-348" y="-15" width="390" height="60" fill="#8A39B0"/>
<g id="&#240;&#159;&#166;&#134; icon &#34;menu&#34;">
<path id="Vector" d="M2 0C0.895429 0 0 0.89543 0 2V2.30416C0 3.40873 0.89543 4.30416 2 4.30416H32.4333C33.5379 4.30416 34.4333 3.40873 34.4333 2.30416V2C34.4333 0.895431 33.5379 0 32.4333 0H2ZM2 12.7834C0.895429 12.7834 0 13.6788 0 14.7834V15.0875C0 16.1921 0.89543 17.0875 2 17.0875H32.4333C33.5379 17.0875 34.4333 16.1921 34.4333 15.0875V14.7834C34.4333 13.6788 33.5379 12.7834 32.4333 12.7834H2ZM2 25.6958C0.895429 25.6958 0 26.5913 0 27.6958V28C0 29.1046 0.89543 30 2 30H32.4333C33.5379 30 34.4333 29.1046 34.4333 28V27.6958C34.4333 26.5913 33.5379 25.6958 32.4333 25.6958H2Z" fill="#FCFCFC"/>
</g>
</g>
</g>
</svg>
