<svg width="32" height="32" viewBox="0 0 32 32" fill="none" xmlns="http://www.w3.org/2000/svg">
<path d="M29.815 21.8399C28.8608 24.0971 27.3683 26.0862 25.4679 27.6332C23.5676 29.1802 21.3174 30.238 18.9139 30.7141C16.5105 31.1903 14.027 31.0702 11.6806 30.3646C9.33425 29.6589 7.19642 28.389 5.45405 26.666C3.71167 24.9429 2.4178 22.8192 1.68554 20.4805C0.95329 18.1417 0.804951 15.6592 1.2535 13.2498C1.70204 10.8405 2.73381 8.57771 4.25861 6.65936C5.7834 4.74102 7.7548 3.22549 10.0004 2.24529" stroke="#FCFCFC" stroke-width="2" stroke-linecap="round" stroke-linejoin="round"/>
<path d="M31 16.0035C31 14.0332 30.612 12.0822 29.8582 10.2619C29.1044 8.4416 27.9995 6.78763 26.6067 5.39442C25.2138 4.00122 23.5603 2.89607 21.7404 2.14207C19.9206 1.38808 17.9701 1 16.0003 1V16.0035H31Z" stroke="#FCFCFC" stroke-width="2" stroke-linecap="round" stroke-linejoin="round"/>
</svg>
