<svg width="22" height="35" viewBox="0 0 22 35" fill="none" xmlns="http://www.w3.org/2000/svg">
<path d="M8.78277 0V4.36954H5.50562C2.53433 4.36954 0.0436954 6.86017 0.0436954 9.83146V12.0162C0.0436954 14.9875 1.96629 17.4345 4.80649 18.1773L15.9925 21.0612C16.6042 21.236 17.4782 22.3283 17.4782 22.9838V25.1685C17.4782 25.7803 16.9975 26.2609 16.3858 26.2609H5.46192C4.93758 26.2609 4.54432 26.0861 4.36954 25.9987V21.8914H0V26.2609C0 27.7466 0.873908 29.0137 1.9226 29.6692C2.92759 30.3683 4.19476 30.6305 5.46192 30.6305H8.73908V35H13.1086V30.6305H16.3858C19.4007 30.6305 21.8477 28.1835 21.8477 25.1685V22.9838C21.8477 20.0125 19.9251 17.5655 17.0849 16.8227L5.89888 13.9388C5.28714 13.764 4.41323 12.6717 4.41323 12.0162V9.83146C4.41323 9.21972 4.89388 8.73908 5.50562 8.73908H16.4295C16.9101 8.73908 17.3471 8.91386 17.5218 9.00125V13.1086H21.8914V8.73908C21.8914 7.25343 21.0175 5.98627 19.9688 5.33084C18.9638 4.63171 17.6966 4.36954 16.4295 4.36954H13.1523V0L8.78277 0Z" fill="#FCFCFC"/>
</svg>
