<svg width="31" height="30" viewBox="0 0 31 30" fill="none" xmlns="http://www.w3.org/2000/svg">
<path d="M22.5 0C15.525 0 9.75 4.8 8.1 11.25H0.9375L0 15H7.5375C7.5375 16.3125 7.8 17.55 8.1375 18.75H0.75L0.0375 22.5H9.6375C12.2625 26.9625 17.025 30 22.5375 30C25.275 30 27.825 29.2125 30.0375 27.9V23.325C28.05 25.125 25.4625 26.25 22.5375 26.25C19.2 26.25 16.275 24.7875 14.2125 22.5H22.5375L23.1375 18.75H12C11.5875 17.55 11.2875 16.35 11.2875 15H23.8125L24.4125 11.25H12C13.5375 6.9 17.6625 3.75 22.5375 3.75C25.0125 3.75 27.2625 4.5375 29.1 5.85L29.7 1.875C27.5625 0.7125 25.1625 0 22.5375 0H22.5Z" fill="#FCFCFC"/>
</svg>
